<svg viewBox="0 0 220 220" fill="none" xmlns="http://www.w3.org/2000/svg">
  <circle cx="110" cy="110" r="107" stroke="#14161F" stroke-width="6" />
  <path d="M8.59375 110H210.547" stroke="#14161F" stroke-width="6" stroke-linecap="round" />
  <path
    d="M153.406 110C153.406 140.074 148.258 167.16 140.05 186.616C135.944 196.349 131.131 204.032 125.939 209.237C120.76 214.43 115.376 217 110 217C104.624 217 99.2404 214.43 94.0606 209.237C88.8693 204.032 84.0563 196.349 79.9499 186.616C71.7422 167.16 66.5938 140.074 66.5938 110C66.5938 79.9256 71.7422 52.8397 79.9499 33.3844C84.0563 23.6507 88.8693 15.9677 94.0606 10.7629C99.2404 5.5698 104.624 3 110 3C115.376 3 120.76 5.5698 125.939 10.7629C131.131 15.9677 135.944 23.6507 140.05 33.3844C148.258 52.8397 153.406 79.9256 153.406 110Z"
    stroke="#14161F"
    stroke-width="6"
  />
</svg>
