<svg width="103" height="24" viewBox="0 0 103 24" fill="none" xmlns="http://www.w3.org/2000/svg">
  <g clip-path="url(#clip0_3219_81)">
    <g style="mix-blend-mode: difference">
      <path
        d="M50.1673 7.59693C49.1002 8.7877 48.5667 10.2823 48.5667 12.0808C48.5477 12.912 48.6799 13.7388 48.9552 14.511C49.2305 15.2831 49.6432 15.9844 50.1681 16.5723C50.6931 17.1601 51.3193 17.6221 52.0086 17.9303C52.698 18.2384 53.4362 18.3862 54.1781 18.3646C55.1526 18.3739 56.1165 18.1372 56.9983 17.6723C57.8827 17.2015 58.5213 16.7262 58.9141 16.2462L59.5012 15.5539L62.5809 19.3246C62.5067 19.4469 62.3996 19.6085 62.2595 19.8069C61.953 20.1846 61.6233 20.5378 61.2728 20.8638C60.1247 22.0223 58.7382 22.8437 57.2372 23.2546C56.2415 23.5665 55.212 23.7218 54.1781 23.7162C51.1307 23.7162 48.5468 22.5746 46.4264 20.2915C44.3059 18.0085 43.245 15.2715 43.2437 12.0808C43.2437 8.90231 44.3039 6.17154 46.4243 3.88847C48.5447 1.60539 51.1293 0.463083 54.1781 0.461544C55.1917 0.456507 56.2007 0.611888 57.1754 0.923083C57.9982 1.17109 58.7874 1.54212 59.5218 2.02616C60.0856 2.41466 60.6252 2.84566 61.1368 3.31616C61.505 3.63933 61.8382 4.00952 62.1297 4.41924L62.4429 4.86231L59.2128 8.63077C59.1572 8.55001 59.0851 8.44616 58.9924 8.31693C58.797 8.07645 58.587 7.8513 58.3641 7.64308C58.0405 7.32828 57.6962 7.04131 57.3341 6.78462C56.373 6.16492 55.2869 5.82976 54.1781 5.81077C52.5727 5.81077 51.2365 6.40616 50.1694 7.59693"
        fill="#D8E6F1"
      />
      <path
        d="M64.0146 1.08936H80.2701V6.44089H74.7967V23.0724H69.4736V6.44089H64.0146V1.08936Z"
        fill="#D8E6F1"
      />
      <path
        d="M99.4982 3.88835C101.62 6.16989 102.681 8.90066 102.681 12.0807C102.681 15.2607 101.62 17.9922 99.4982 20.2753C97.3791 22.5568 94.798 23.6983 91.7547 23.6999C88.7113 23.7014 86.1295 22.5599 84.0091 20.2753C81.8804 17.9891 80.8167 15.2576 80.8181 12.0807C80.8195 8.90373 81.8797 6.17296 83.9988 3.88835C86.1206 1.60373 88.7024 0.461426 91.7444 0.461426C94.7863 0.461426 97.3709 1.60373 99.4982 3.88835ZM87.851 7.59681C86.8031 8.78758 86.2785 10.2822 86.2771 12.0807C86.2757 13.8791 86.8004 15.376 87.851 16.5714C88.8886 17.7201 90.2886 18.3643 91.7474 18.3643C93.2063 18.3643 94.6063 17.7201 95.6439 16.5714C96.6877 15.376 97.2095 13.8791 97.2095 12.0807C97.2095 10.2822 96.6877 8.78758 95.6439 7.59681C94.604 6.45308 93.2048 5.8123 91.7474 5.8123C90.2901 5.8123 88.8909 6.45308 87.851 7.59681Z"
        fill="#D8E6F1"
      />
      <path
        d="M31.5181 18.044H41.6039V23.0724H26.1951V1.08936H41.3299V6.11782H31.5181V9.56782H39.0865V14.2894H31.5181V18.044Z"
        fill="#D8E6F1"
      />
      <path
        d="M11.1941 17.737L5.73515 10.0432V23.0724H0.412109V1.08936H5.17483L11.1941 9.73628L17.2299 1.08936H21.9906V23.0724H16.6676V10.0432L11.1941 17.737Z"
        fill="#D8E6F1"
      />
    </g>
  </g>
  <defs>
    <clipPath id="clip0_3219_81">
      <rect width="103" height="24" fill="white" />
    </clipPath>
  </defs>
</svg>
